<svg xmlns="http://www.w3.org/2000/svg" xmlns:xlink="http://www.w3.org/1999/xlink" viewBox="0 0 238.4 320.23"><defs><style>.cls-1{fill:#ff7cde;}.cls-2{fill:#20295e;}.cls-3{fill:#6021a2;}.cls-4{fill:#5b2663;}.cls-5{fill:#63264a;}.cls-6{fill:#483125;}.cls-7{fill:#2e0e59;}.cls-8{fill:#303b53;}.cls-9{fill:#97aee2;}.cls-10{fill:#efdcb5;}.cls-11{fill:#e2ccb4;}.cls-12{fill:#cab2e5;}.cls-13{fill:#d0d0eb;}.cls-14{fill:#d3c1ac;}.cls-15{fill:#c6b297;}.cls-16{fill:#a4a2cd;}.cls-17{fill:#8e97b4;}.cls-18{fill:#bf91b7;}.cls-19{fill:#afadc7;}.cls-20{fill:#bbc0d4;}.cls-21{fill:#9094db;}.cls-22{fill:#6b66a0;}.cls-23{fill:#6a4cdd;}.cls-24{fill:#6b6ac1;}.cls-25{fill:#244a9e;}.cls-26{fill:#90a5db;}.cls-27{fill:#a7b0e2;}.cls-28{fill:#6e5dc6;}.cls-29{fill:#cbffe0;}.cls-30{fill:#c3dcff;}.cls-31{fill:#eabfff;}.cls-32{fill:#bdc5f7;}.cls-33{fill:#ae82db;}.cls-34{fill:#7b7cd8;}.cls-35{fill:#8487c6;}.cls-36{fill:url(#Degradado_sin_nombre_25);}.cls-37{fill:#4e4c7a;}.cls-38{fill:#53574d;}.cls-39{fill:#695141;}.cls-40{fill:#00188c;}.cls-41{fill:#203a60;}.cls-42{fill:#b087e2;}.cls-43{fill:#8f9bd3;}.cls-44{fill:#a7c2f2;}.cls-45{fill:#e7ffcb;}.cls-46{fill:#f9feb1;}.cls-47{fill:#c19fe0;}.cls-48{fill:#608087;}.cls-49{fill:#090d22;}.cls-50{fill:#3c424c;}.cls-51{fill:#444586;}.cls-52{fill:#7383c4;}.cls-53{fill:#4e69c4;}.cls-54{fill:#7592db;}.cls-55{fill:#3f3bff;}.cls-56{fill:#7a829b;}.cls-57{fill:#844b7d;}.cls-58{fill:#3e60db;}.cls-59{fill:#564d9b;}.cls-60{fill:#6d7265;}.cls-61{fill:#b2996a;}.cls-62{fill:#3b55ff;}.cls-63{fill:#6279dd;}.cls-100,.cls-101,.cls-102,.cls-105,.cls-106,.cls-107,.cls-108,.cls-110,.cls-112,.cls-113,.cls-114,.cls-116,.cls-117,.cls-118,.cls-122,.cls-123,.cls-124,.cls-125,.cls-126,.cls-127,.cls-128,.cls-129,.cls-130,.cls-131,.cls-135,.cls-136,.cls-137,.cls-64,.cls-65,.cls-66,.cls-67,.cls-68,.cls-69,.cls-70,.cls-71,.cls-72,.cls-73,.cls-74,.cls-75,.cls-76,.cls-77,.cls-78,.cls-79,.cls-80,.cls-81,.cls-82,.cls-83,.cls-84,.cls-85,.cls-86,.cls-87,.cls-88,.cls-89,.cls-90,.cls-91,.cls-92,.cls-93,.cls-94,.cls-99{fill:none;stroke-miterlimit:10;}.cls-64{stroke:#7a829b;}.cls-100,.cls-101,.cls-102,.cls-105,.cls-106,.cls-107,.cls-108,.cls-110,.cls-112,.cls-113,.cls-114,.cls-116,.cls-117,.cls-118,.cls-122,.cls-123,.cls-124,.cls-125,.cls-126,.cls-127,.cls-128,.cls-129,.cls-130,.cls-131,.cls-135,.cls-136,.cls-137,.cls-64,.cls-65,.cls-66,.cls-67,.cls-68,.cls-69,.cls-70,.cls-72,.cls-73,.cls-74,.cls-75,.cls-76,.cls-77,.cls-78,.cls-79,.cls-80,.cls-81,.cls-82,.cls-83,.cls-84,.cls-85,.cls-86,.cls-87,.cls-88,.cls-89,.cls-90,.cls-91,.cls-92,.cls-93,.cls-94,.cls-99{stroke-width:0.5px;}.cls-65{stroke:#20295e;}.cls-66{stroke:#6021a2;}.cls-67{stroke:#5b2663;}.cls-68{stroke:#63264a;}.cls-69{stroke:#483125;}.cls-70{stroke:#2e0e59;}.cls-118,.cls-71{stroke:#303b53;}.cls-72{stroke:#efdcb5;}.cls-73{stroke:#e2ccb4;}.cls-74{stroke:#cab2e5;}.cls-75{stroke:#d0d0eb;}.cls-76{stroke:#d3c1ac;}.cls-77{stroke:#c6b297;}.cls-78{stroke:#a4a2cd;}.cls-79{stroke:#8e97b4;}.cls-80{stroke:#bf91b7;}.cls-81{stroke:#afadc7;}.cls-82{stroke:#bbc0d4;}.cls-83{stroke:#9094db;}.cls-84{stroke:#6b66a0;}.cls-85{stroke:#6a4cdd;}.cls-86{stroke:#6b6ac1;}.cls-87{stroke:#244a9e;}.cls-88{stroke:#90a5db;}.cls-89{stroke:#a7b0e2;}.cls-90{stroke:#6e5dc6;}.cls-91{stroke:#cbffe0;}.cls-92{stroke:#c3dcff;}.cls-93{stroke:#eabfff;}.cls-94{stroke:#bdc5f7;}.cls-95{fill:url(#Degradado_sin_nombre_9);}.cls-96{fill:url(#Degradado_sin_nombre_44);}.cls-97{fill:url(#Degradado_sin_nombre_112);}.cls-98{fill:url(#Degradado_sin_nombre_17);}.cls-99{stroke:#564d9b;}.cls-100{stroke:#4e4c7a;}.cls-101{stroke:#53574d;}.cls-102{stroke:#695141;}.cls-103{fill:url(#Degradado_sin_nombre_68);}.cls-104{fill:url(#Degradado_sin_nombre_61);}.cls-105{stroke:#203a60;}.cls-106{stroke:#7b7cd8;}.cls-107{stroke:#b087e2;}.cls-108{stroke:#8f9bd3;}.cls-109{fill:url(#Degradado_sin_nombre_75);}.cls-110{stroke:#f9feb1;}.cls-111{fill:url(#Degradado_sin_nombre_75-2);}.cls-112{stroke:#00188c;}.cls-113{stroke:#a7c2f2;}.cls-114{stroke:#97aee2;}.cls-115{fill:url(#Degradado_sin_nombre_54);}.cls-116{stroke:#c19fe0;}.cls-117{stroke:#444586;}.cls-119{fill:url(#Degradado_sin_nombre_82);}.cls-120{fill:url(#Degradado_sin_nombre_37);}.cls-121{fill:url(#Degradado_sin_nombre_89);}.cls-122{stroke:#ae82db;}.cls-123{stroke:#7383c4;}.cls-124{stroke:#4e69c4;}.cls-125{stroke:#7592db;}.cls-126{stroke:#3f3bff;}.cls-127{stroke:#844b7d;}.cls-128{stroke:#3e60db;}.cls-129{stroke:#6d7265;}.cls-130{stroke:#b2996a;}.cls-131{stroke:#3b55ff;}.cls-132{fill:url(#Degradado_sin_nombre_126);}.cls-133{fill:url(#Degradado_sin_nombre_119);}.cls-134{fill:url(#Degradado_sin_nombre_96);}.cls-135{stroke:#6279dd;}.cls-136{stroke:#8487c6;}.cls-137{stroke:#e7ffcb;}.cls-138{fill:url(#Degradado_sin_nombre_105);}.cls-139{fill:#fff;}</style><linearGradient id="Degradado_sin_nombre_25" x1="91.31" y1="84.73" x2="136.86" y2="70.94" gradientUnits="userSpaceOnUse"><stop offset="0" stop-color="#564d9b"/><stop offset="1" stop-color="#564d9b" stop-opacity="0"/></linearGradient><linearGradient id="Degradado_sin_nombre_9" x1="118.61" y1="147.2" x2="142.86" y2="150.79" gradientUnits="userSpaceOnUse"><stop offset="0" stop-color="#7b7cd8"/><stop offset="1" stop-color="#7b7cd8" stop-opacity="0"/></linearGradient><linearGradient id="Degradado_sin_nombre_44" x1="120.58" y1="176.05" x2="147.66" y2="183.61" gradientUnits="userSpaceOnUse"><stop offset="0" stop-color="#bf91b7"/><stop offset="1" stop-color="#bf91b7" stop-opacity="0"/></linearGradient><linearGradient id="Degradado_sin_nombre_112" x1="117.16" y1="100.92" x2="142.12" y2="109.18" gradientUnits="userSpaceOnUse"><stop offset="0" stop-color="#6a4cdd" stop-opacity="0.95"/><stop offset="1" stop-color="#694fd8" stop-opacity="0"/></linearGradient><linearGradient id="Degradado_sin_nombre_17" x1="113.29" y1="109.12" x2="133.64" y2="104.32" gradientUnits="userSpaceOnUse"><stop offset="0" stop-color="#244a9e"/><stop offset="1" stop-color="#244a9e" stop-opacity="0"/></linearGradient><linearGradient id="Degradado_sin_nombre_68" x1="121.45" y1="55.3" x2="132.2" y2="72.81" gradientUnits="userSpaceOnUse"><stop offset="0" stop-color="#00188c"/><stop offset="1" stop-color="#00188c" stop-opacity="0"/></linearGradient><linearGradient id="Degradado_sin_nombre_61" x1="117.21" y1="41.27" x2="129.98" y2="70.42" gradientUnits="userSpaceOnUse"><stop offset="0" stop-color="#6021a2"/><stop offset="1" stop-color="#6021a2" stop-opacity="0"/></linearGradient><linearGradient id="Degradado_sin_nombre_75" x1="127.13" y1="189.57" x2="143.74" y2="206.3" gradientUnits="userSpaceOnUse"><stop offset="0" stop-color="#a7c2f2"/><stop offset="1" stop-color="#abc3ef" stop-opacity="0"/></linearGradient><linearGradient id="Degradado_sin_nombre_75-2" x1="129.36" y1="160.57" x2="152.22" y2="202.24" xlink:href="#Degradado_sin_nombre_75"/><linearGradient id="Degradado_sin_nombre_54" x1="122.22" y1="139.65" x2="143.51" y2="161.11" gradientUnits="userSpaceOnUse"><stop offset="0" stop-color="#efdcb5"/><stop offset="1" stop-color="#efdcb5" stop-opacity="0"/></linearGradient><linearGradient id="Degradado_sin_nombre_82" x1="116.38" y1="198.74" x2="133.3" y2="205.82" gradientUnits="userSpaceOnUse"><stop offset="0" stop-color="#2e0e59" stop-opacity="0.95"/><stop offset="1" stop-color="#2e0e59" stop-opacity="0"/></linearGradient><linearGradient id="Degradado_sin_nombre_37" x1="123.02" y1="201.63" x2="133.97" y2="210.62" gradientUnits="userSpaceOnUse"><stop offset="0" stop-color="#63264a"/><stop offset="1" stop-color="#63264a" stop-opacity="0"/></linearGradient><linearGradient id="Degradado_sin_nombre_89" x1="121.29" y1="223.98" x2="141.57" y2="223.05" gradientUnits="userSpaceOnUse"><stop offset="0" stop-color="#5b2663" stop-opacity="0.95"/><stop offset="1" stop-color="#5b2663" stop-opacity="0"/></linearGradient><linearGradient id="Degradado_sin_nombre_126" x1="117.57" y1="290.25" x2="124.26" y2="311.57" gradientUnits="userSpaceOnUse"><stop offset="0" stop-color="#efdcb5" stop-opacity="0.89"/><stop offset="1" stop-color="#efdcb5" stop-opacity="0"/></linearGradient><linearGradient id="Degradado_sin_nombre_119" x1="139.98" y1="259.48" x2="125.74" y2="291.79" gradientUnits="userSpaceOnUse"><stop offset="0" stop-color="#cab2e5" stop-opacity="0.89"/><stop offset="1" stop-color="#cab2e5" stop-opacity="0"/></linearGradient><linearGradient id="Degradado_sin_nombre_96" x1="128.62" y1="249.93" x2="140.06" y2="268.11" gradientUnits="userSpaceOnUse"><stop offset="0" stop-color="#c19fe0" stop-opacity="0.95"/><stop offset="1" stop-color="#c19fe0" stop-opacity="0"/></linearGradient><linearGradient id="Degradado_sin_nombre_105" x1="116.97" y1="229.14" x2="138.62" y2="231.16" gradientUnits="userSpaceOnUse"><stop offset="0" stop-color="#608087" stop-opacity="0.95"/><stop offset="1" stop-color="#608087" stop-opacity="0"/></linearGradient></defs><g id="Layer_2" data-name="Layer 2"><g id="OBJECTS"><path class="cls-1" d="M81.83,114.07c-3.11,1-6.46,0-9.66.87s-6.07,2.25-9.13,3.3c-.47.16-.27.92.21.75,2.88-1,5.66-2.23,8.57-3.13,3.38-1,6.9.07,10.21-1C82.51,114.66,82.31,113.9,81.83,114.07Z"/><path class="cls-1" d="M67,130.34l-.26.26a.4.4,0,0,0,.56.56l.26-.27A.39.39,0,0,0,67,130.34Z"/><path class="cls-1" d="M27,211a4.25,4.25,0,0,1-.47,1.63c-.22.45.45.85.67.39a5,5,0,0,0,.58-2A.39.39,0,0,0,27,211Z"/><polygon class="cls-2" points="70.17 66.63 89.66 46.98 96.47 57.21 70.17 66.63"/><polygon class="cls-3" points="89.66 46.98 77.12 47.52 70.17 66.63 89.66 46.98"/><polygon class="cls-4" points="77.12 47.52 83.41 40.23 89.66 46.98 77.12 47.52"/><polygon class="cls-5" points="77.12 47.52 71.89 40.23 83.41 40.23 77.12 47.52"/><polygon class="cls-6" points="71.89 40.23 70.89 26.88 83.41 40.23 71.89 40.23"/><polygon class="cls-7" points="71.89 40.23 57.93 24.05 70.89 26.88 71.89 40.23"/><polygon class="cls-8" points="57.93 24.05 57.52 12.64 70.89 26.88 57.93 24.05"/><polygon class="cls-4" points="57.93 24.05 44.21 11.61 57.52 12.64 57.93 24.05"/><polygon class="cls-3" points="44.21 11.61 51.5 3.72 57.52 12.64 44.21 11.61"/><polygon class="cls-8" points="44.21 11.61 44.99 0.89 51.5 3.72 44.21 11.61"/><polygon class="cls-2" points="44.21 11.61 31.71 12.7 44.99 0.89 44.21 11.61"/><polygon class="cls-3" points="31.71 12.7 36.9 17.45 44.21 11.61 31.71 12.7"/><polygon class="cls-7" points="31.71 12.7 28.16 27.03 36.9 17.45 31.71 12.7"/><polygon class="cls-4" points="36.9 50.14 46.75 52.48 57.93 40.23 36.9 50.14"/><polygon class="cls-8" points="46.75 52.48 46.63 72.64 55.86 80.54 46.75 52.48"/><polygon class="cls-9" points="46.75 52.48 70.17 66.63 55.86 80.54 46.75 52.48"/><polygon class="cls-10" points="46.75 52.48 57.93 40.23 70.17 66.63 46.75 52.48"/><polygon class="cls-11" points="57.93 40.23 71.89 40.23 70.17 66.63 57.93 40.23"/><polygon class="cls-12" points="71.89 40.23 77.12 47.52 70.17 66.63 71.89 40.23"/><polygon class="cls-13" points="36.9 50.14 23.76 44.52 35.19 69.25 36.9 50.14"/><polygon class="cls-10" points="23.76 44.52 28.16 27.03 36.9 50.14 23.76 44.52"/><polygon class="cls-14" points="36.9 50.14 46.63 72.64 35.19 69.25 36.9 50.14"/><polygon class="cls-15" points="36.9 50.14 46.63 72.64 46.75 52.48 36.9 50.14"/><polygon class="cls-16" points="35.19 69.25 43.4 89.61 46.63 72.64 35.19 69.25"/><polygon class="cls-17" points="46.63 72.64 55.86 80.54 43.4 89.61 46.63 72.64"/><polygon class="cls-18" points="43.4 89.61 19.95 74.94 38.61 77.74 43.4 89.61"/><polygon class="cls-19" points="19.95 74.94 35.19 69.25 38.61 77.74 19.95 74.94"/><polygon class="cls-20" points="35.19 69.25 21.84 61.38 23.76 44.52 35.19 69.25"/><polygon class="cls-21" points="21.84 61.38 24.52 73.23 35.19 69.25 21.84 61.38"/><polygon class="cls-22" points="44.21 11.61 57.93 40.23 57.93 24.05 44.21 11.61"/><polygon class="cls-23" points="57.93 24.05 71.89 40.23 57.93 40.23 57.93 24.05"/><polygon class="cls-24" points="44.21 11.61 36.9 17.45 57.93 40.23 44.21 11.61"/><polygon class="cls-25" points="36.9 17.45 28.16 27.03 57.93 40.23 36.9 17.45"/><polygon class="cls-26" points="73.58 116.01 61.32 119.02 86.25 126.13 73.58 116.01"/><polygon class="cls-27" points="61.32 119.02 68.39 129.16 83.77 125.14 61.32 119.02"/><polygon class="cls-28" points="28.16 27.03 36.9 50.14 57.93 40.23 28.16 27.03"/><polygon class="cls-29" points="68.39 129.16 60.03 133.73 75.6 138.9 68.39 129.16"/><polygon class="cls-6" points="91.65 134.59 95.3 146.95 83.34 141.09 91.65 134.59"/><polygon class="cls-4" points="91.65 134.59 97.42 134.72 95.3 146.95 91.65 134.59"/><polygon class="cls-22" points="61.32 119.02 83.77 113.51 70.03 95.24 61.32 119.02"/><polygon class="cls-22" points="96.67 100.88 43.4 89.61 55.86 80.54 96.67 100.88"/><polygon class="cls-14" points="83.77 113.51 88.47 127.9 73.58 116.01 83.77 113.51"/><polygon class="cls-30" points="83.77 113.51 97.24 112.92 91.65 134.59 88.47 127.9 83.77 113.51"/><polygon class="cls-31" points="96.67 100.88 97.24 112.92 83.77 113.51 96.67 100.88"/><polygon class="cls-13" points="96.67 100.88 105.93 113.51 97.24 112.92 96.67 100.88"/><polygon class="cls-32" points="97.24 112.92 105.47 134.9 91.65 134.59 97.24 112.92"/><polygon class="cls-26" points="97.24 112.92 105.93 113.51 105.47 134.9 97.24 112.92"/><polygon class="cls-24" points="105.93 113.51 118.82 120.71 105.47 134.9 105.93 113.51"/><polygon class="cls-33" points="105.47 134.9 118.82 152.78 118.82 120.71 105.47 134.9"/><polygon class="cls-34" points="105.47 134.9 106.58 163.36 118.82 152.78 105.47 134.9"/><polygon class="cls-35" points="106.58 163.36 118.82 189.31 118.82 152.78 106.58 163.36"/><polygon class="cls-18" points="106.58 163.36 98.74 196.78 118.82 189.31 106.58 163.36"/><polygon class="cls-20" points="95.3 146.95 105.47 134.9 97.42 134.72 95.3 146.95"/><polygon class="cls-23" points="96.67 100.88 118.82 94.93 105.93 113.51 96.67 100.88"/><polygon class="cls-25" points="105.93 113.51 118.82 94.93 118.82 120.71 105.93 113.51"/><polygon class="cls-36" points="96.67 100.88 118.82 57.87 118.82 94.93 96.67 100.88"/><polygon class="cls-37" points="96.67 100.88 96.47 57.21 110.19 74.62 96.67 100.88"/><polygon class="cls-38" points="96.47 57.21 70.17 66.63 96.67 100.88 96.47 57.21"/><polygon class="cls-38" points="96.47 57.21 109.58 56.54 110.19 74.62 96.47 57.21"/><polygon class="cls-39" points="96.47 57.21 101.89 43.62 109.58 56.54 96.47 57.21"/><polygon class="cls-40" points="109.58 56.54 118.82 57.87 110.19 74.62 109.58 56.54"/><polygon class="cls-3" points="109.58 56.54 114.22 42.55 118.82 57.87 109.58 56.54"/><polygon class="cls-41" points="101.89 43.62 89.66 46.98 96.47 57.21 101.89 43.62"/><polygon class="cls-23" points="70.17 66.63 55.86 80.54 96.67 100.88 70.17 66.63"/><polygon class="cls-34" points="83.77 113.51 96.67 100.88 70.03 95.24 83.77 113.51"/><polygon class="cls-28" points="60.03 133.73 51.99 154.56 20.79 161.03 60.03 133.73"/><polygon class="cls-34" points="60.03 133.73 67.69 147.46 55.86 144.53 60.03 133.73"/><polygon class="cls-42" points="67.69 147.46 67.19 162.66 75 164.96 67.69 147.46"/><polygon class="cls-17" points="67.69 147.46 55.86 144.53 67.19 162.66 67.69 147.46"/><polygon class="cls-17" points="51.99 154.56 49.63 170.59 20.79 161.03 51.99 154.56"/><polygon class="cls-43" points="51.99 154.56 58.97 180.07 49.63 170.59 51.99 154.56"/><polygon class="cls-43" points="51.99 154.56 55.86 144.53 67.19 162.66 51.99 154.56"/><polygon class="cls-44" points="98.74 196.78 98.98 205.91 111.29 192.09 98.74 196.78"/><polygon class="cls-45" points="98.74 196.78 80.02 211.49 100.38 217.36 98.74 196.78"/><polygon class="cls-46" points="80.02 211.49 85.06 229.12 100.38 217.36 80.02 211.49"/><polygon class="cls-29" points="98.74 196.78 80.84 191.8 80.02 211.49 98.74 196.78"/><polygon class="cls-44" points="80.84 191.8 106.58 163.36 98.74 196.78 80.84 191.8"/><polygon class="cls-12" points="80.02 211.49 74.53 204.83 80.84 191.8 80.02 211.49"/><polygon class="cls-12" points="111.29 192.09 118.82 196.78 106.58 197.18 111.29 192.09"/><polygon class="cls-47" points="111.29 192.09 118.82 189.31 118.82 196.78 111.29 192.09"/><polygon class="cls-40" points="74.53 204.83 73.22 210.93 80.02 211.49 74.53 204.83"/><polygon class="cls-23" points="73.22 210.93 85.06 229.12 80.02 211.49 73.22 210.93"/><polygon class="cls-16" points="100.38 217.36 109.48 229.54 101.54 227.5 100.38 217.36"/><polygon class="cls-13" points="76.75 149.85 83.41 141.13 75.6 138.9 76.75 149.85"/><polygon class="cls-20" points="100.38 217.36 101.54 227.5 85.06 229.12 100.38 217.36"/><polygon class="cls-48" points="118.82 231.97 101.54 227.5 104.33 234.09 118.82 231.97"/><polygon class="cls-41" points="104.33 234.09 96.15 237.15 118.82 235.62 118.82 231.97 104.33 234.09"/><polygon class="cls-2" points="96.15 237.15 108.28 241.91 118.82 241.49 118.82 235.62 96.15 237.15"/><polygon class="cls-18" points="101.54 227.5 96.15 237.15 104.33 234.09 101.54 227.5"/><polygon class="cls-16" points="101.54 227.5 85.06 229.12 96.15 237.15 101.54 227.5"/><polygon class="cls-46" points="60.03 133.73 75.6 138.9 67.69 147.46 60.03 133.73"/><polygon class="cls-29" points="75.6 138.9 76.75 149.85 67.69 147.46 75.6 138.9"/><polygon class="cls-44" points="76.75 149.85 75 164.96 67.69 147.46 76.75 149.85"/><polygon class="cls-9" points="76.75 149.85 80.24 168.18 75 164.96 76.75 149.85"/><polygon class="cls-16" points="76.75 149.85 86.62 157.73 80.24 168.18 76.75 149.85"/><path class="cls-49" d="M68.39,129.16S82.72,121,88.47,127.9l3.18,6.7S87,145.76,75.6,138.9C75.6,138.9,72,136,68.39,129.16Z"/><path class="cls-25" d="M81.87,129.7a4.88,4.88,0,0,1,4.66,3.43,4.76,4.76,0,0,0,.23-1.47,4.9,4.9,0,0,0-9.79,0,4.76,4.76,0,0,0,.23,1.47A4.88,4.88,0,0,1,81.87,129.7Z"/><path class="cls-44" d="M81.87,136.55a4.88,4.88,0,0,0,4.66-3.42,4.89,4.89,0,0,0-9.33,0A4.89,4.89,0,0,0,81.87,136.55Z"/><path class="cls-8" d="M84.14,130.75a1.41,1.41,0,1,1-1.4-1.4A1.4,1.4,0,0,1,84.14,130.75Z"/><polygon class="cls-32" points="76.75 149.85 86.62 157.73 83.41 141.13 76.75 149.85"/><polygon class="cls-27" points="83.41 141.13 95.3 146.95 86.62 157.73 83.41 141.13"/><polygon class="cls-10" points="95.3 146.95 105.47 134.9 106.58 163.36 95.3 146.95"/><polygon class="cls-11" points="95.3 146.95 86.62 157.73 106.58 163.36 95.3 146.95"/><polygon class="cls-14" points="86.62 157.73 80.24 168.18 106.58 163.36 86.62 157.73"/><polygon class="cls-15" points="80.24 168.18 80.84 191.8 106.58 163.36 80.24 168.18"/><polygon class="cls-20" points="58.97 180.07 80.24 168.18 80.84 191.8 58.97 180.07"/><polygon class="cls-11" points="67.19 162.66 58.97 180.07 51.99 154.56 67.19 162.66"/><polygon class="cls-13" points="67.19 162.66 72.22 172.66 58.97 180.07 67.19 162.66"/><polygon class="cls-13" points="49.63 170.59 32.23 189.31 58.97 180.07 49.63 170.59"/><polygon class="cls-46" points="49.63 170.59 32.7 172.46 32.23 189.31 49.63 170.59"/><polygon class="cls-31" points="32.7 172.46 35.24 165.82 49.63 170.59 32.7 172.46"/><polygon class="cls-31" points="75 164.96 72.22 172.66 67.19 162.66 75 164.96"/><polygon class="cls-12" points="75 164.96 80.24 168.18 72.22 172.66 75 164.96"/><polygon class="cls-47" points="74.53 204.83 58.97 180.07 80.84 191.8 74.53 204.83"/><polygon class="cls-20" points="58.97 180.07 52.7 200.62 32.23 189.31 58.97 180.07"/><polygon class="cls-11" points="58.97 180.07 74.53 204.83 52.7 200.62 58.97 180.07"/><polygon class="cls-11" points="73.22 210.93 51.11 217.76 52.7 200.62 73.22 210.93"/><polygon class="cls-50" points="109.48 229.55 118.82 220.83 118.82 231.97 109.48 229.55"/><polygon class="cls-7" points="114.62 224.75 108.04 218.65 108.41 212.79 114.15 212.79 114.62 224.75"/><polygon class="cls-51" points="100.38 217.36 108.04 218.65 99.43 205.41 100.38 217.36"/><polygon class="cls-8" points="108.41 212.79 106.58 197.18 99.43 205.41 108.41 212.79"/><polygon class="cls-7" points="106.58 197.18 118.82 207.47 118.82 196.78 106.58 197.18"/><polygon class="cls-4" points="118.82 207.47 114.15 212.79 114.62 224.75 118.82 220.83 118.82 207.47"/><polygon class="cls-5" points="114.15 212.79 106.58 197.18 118.82 207.47 114.15 212.79"/><polygon class="cls-4" points="108.41 212.79 106.58 197.18 114.15 212.79 108.41 212.79"/><polygon class="cls-2" points="108.41 212.79 108.04 218.65 99.43 205.41 108.41 212.79"/><polygon class="cls-4" points="100.38 217.36 109.48 229.55 114.62 224.75 108.04 218.65 100.38 217.36"/><polygon class="cls-23" points="52.7 200.62 32.23 189.31 29.05 214.27 52.7 200.62"/><polygon class="cls-28" points="32.23 189.31 21.09 197.23 29.05 214.27 32.23 189.31"/><polygon class="cls-24" points="21.09 197.23 16.33 178.09 32.23 189.31 21.09 197.23"/><polygon class="cls-33" points="16.33 178.09 32.7 172.46 32.23 189.31 16.33 178.09"/><polygon class="cls-52" points="16.33 178.09 20.79 161.03 32.7 172.46 16.33 178.09"/><polygon class="cls-53" points="20.79 161.03 32.7 172.46 35.24 165.82 20.79 161.03"/><polygon class="cls-54" points="16.33 178.09 6.38 226.32 21.09 197.23 16.33 178.09"/><polygon class="cls-53" points="21.09 197.23 29.05 214.27 6.38 226.32 21.09 197.23"/><polygon class="cls-43" points="16.33 178.09 0 180.43 20.79 161.03 16.33 178.09"/><polygon class="cls-23" points="60.03 133.73 20.44 147.17 20.79 161.03 60.03 133.73"/><polygon class="cls-55" points="20.44 147.17 21.31 131.59 60.03 133.73 20.44 147.17"/><polygon class="cls-56" points="60.03 133.73 61.32 119.02 68.39 129.16 60.03 133.73"/><polygon class="cls-56" points="20.44 147.17 1.74 156.56 20.79 161.03 20.44 147.17"/><polygon class="cls-57" points="20.44 147.17 3.75 146.87 21.31 131.59 20.44 147.17"/><polygon class="cls-33" points="21.31 131.59 24.02 121.03 60.03 133.73 21.31 131.59"/><polygon class="cls-24" points="43.4 89.61 61.32 119.02 70.03 95.24 43.4 89.61"/><polygon class="cls-22" points="43.4 89.61 34.87 100.48 50.03 100.48 43.4 89.61"/><polygon class="cls-28" points="34.87 100.48 31.55 111.55 50.03 100.48 34.87 100.48"/><polygon class="cls-58" points="31.55 111.55 60.03 133.73 24.02 121.03 31.55 111.55"/><polygon class="cls-24" points="31.55 111.55 61.32 119.02 60.03 133.73 31.55 111.55"/><polygon class="cls-58" points="31.55 111.55 50.03 100.48 61.32 119.02 31.55 111.55"/><polygon class="cls-59" points="31.55 111.55 14.23 102.46 34.87 100.48 31.55 111.55"/><polygon class="cls-25" points="31.55 111.55 10.86 112.72 24.02 121.03 31.55 111.55"/><polygon class="cls-22" points="24.02 121.03 7.71 135.51 21.31 131.59 24.02 121.03"/><polygon class="cls-60" points="43.4 89.61 34.87 100.48 18.33 88.86 43.4 89.61"/><polygon class="cls-61" points="18.33 88.86 26.87 79.27 43.4 89.61 18.33 88.86"/><polygon class="cls-16" points="29.05 214.27 48.8 239.66 51.11 217.76 29.05 214.27"/><polygon class="cls-47" points="52.7 200.62 51.11 217.76 29.05 214.27 52.7 200.62"/><polygon class="cls-32" points="48.8 239.66 73.22 210.93 51.11 217.76 48.8 239.66"/><polygon class="cls-10" points="73.22 210.93 61.23 235.04 48.8 239.66 73.22 210.93"/><polygon class="cls-20" points="73.22 210.93 85.06 229.12 61.23 235.04 73.22 210.93"/><polygon class="cls-20" points="48.8 239.66 58.97 248.59 61.23 235.04 48.8 239.66"/><polygon class="cls-52" points="48.8 239.66 13.95 236.13 37.76 225.47 48.8 239.66"/><polygon class="cls-62" points="29.05 214.27 13.95 236.13 37.76 225.47 29.05 214.27"/><polygon class="cls-24" points="48.8 239.66 25.42 254.39 29.05 237.66 48.8 239.66"/><polygon class="cls-34" points="48.8 239.66 58.97 248.59 25.42 254.39 48.8 239.66"/><polygon class="cls-15" points="58.97 248.59 85.06 229.12 61.23 235.04 58.97 248.59"/><polygon class="cls-17" points="58.97 248.59 29.85 270.19 36.47 252.48 58.97 248.59"/><polygon class="cls-56" points="58.97 248.59 51.11 269.83 29.56 270.37 58.97 248.59"/><polygon class="cls-21" points="58.97 248.59 74.5 261.96 81.28 243.42 58.97 248.59"/><polygon class="cls-16" points="85.06 229.12 81.28 243.42 58.97 248.59 85.06 229.12"/><polygon class="cls-13" points="96.15 237.15 107.01 247.03 108.28 241.91 96.15 237.15"/><polygon class="cls-30" points="108.28 241.91 118.82 241.49 107.01 247.03 108.28 241.91"/><polygon class="cls-29" points="107.01 247.03 118.82 248.07 118.82 241.49 107.01 247.03"/><polygon class="cls-44" points="107.01 247.03 118.82 255.6 118.82 248.07 107.01 247.03"/><polygon class="cls-47" points="90.83 254.17 74.5 261.96 82.67 271.23 90.83 254.17"/><polygon class="cls-12" points="90.83 254.17 95 277.98 82.67 271.23 90.83 254.17"/><polygon class="cls-27" points="95 277.98 118.82 289.75 93.15 267.42 95 277.98"/><polygon class="cls-44" points="95 277.98 106.09 311.27 118.82 289.75 95 277.98"/><polygon class="cls-20" points="95 277.98 80.02 299.8 82.67 271.23 95 277.98"/><polygon class="cls-13" points="95 277.98 86.54 290.3 106.09 311.27 95 277.98"/><polygon class="cls-10" points="118.82 289.75 111.44 302.23 118.82 309.76 118.82 289.75"/><polygon class="cls-46" points="111.44 302.23 118.82 319.87 118.82 309.76 111.44 302.23"/><polygon class="cls-12" points="93.15 267.42 106.58 261.54 118.82 289.75 93.15 267.42"/><polygon class="cls-20" points="106.58 261.54 118.82 255.6 118.82 289.75 106.58 261.54"/><polygon class="cls-43" points="107.01 247.03 106.58 261.54 118.82 255.6 107.01 247.03"/><polygon class="cls-47" points="107.01 247.03 93.15 267.42 106.58 261.54 107.01 247.03"/><polygon class="cls-18" points="96.15 237.15 90.83 254.17 107.01 247.03 96.15 237.15"/><polygon class="cls-43" points="107.01 247.03 93.15 267.42 90.83 254.17 107.01 247.03"/><polygon class="cls-63" points="85.06 229.12 96.15 237.15 81.28 243.42 85.06 229.12"/><polygon class="cls-42" points="74.5 261.96 61.01 287.67 50.5 269.84 74.5 261.96"/><polygon class="cls-16" points="74.5 261.96 80.02 299.8 82.67 271.23 74.5 261.96"/><polygon class="cls-17" points="74.5 261.96 65.78 278.59 80.02 299.8 74.5 261.96"/><polygon class="cls-35" points="58.97 248.59 74.5 261.96 50.5 269.84 58.97 248.59"/><polygon class="cls-15" points="81.28 243.42 90.83 254.17 74.5 261.96 81.28 243.42"/><polygon class="cls-16" points="81.28 243.42 96.15 237.15 90.83 254.17 81.28 243.42"/><polygon class="cls-16" points="74.53 204.83 73.22 210.93 52.7 200.62 74.53 204.83"/><polygon class="cls-64" points="177.62 133.73 176.33 119.02 169.26 129.16 177.62 133.73"/><polygon class="cls-65" points="167.48 66.63 147.99 46.98 141.18 57.21 167.48 66.63"/><polygon class="cls-66" points="147.99 46.98 160.53 47.52 167.48 66.63 147.99 46.98"/><polygon class="cls-67" points="160.53 47.52 154.24 40.23 147.99 46.98 160.53 47.52"/><polygon class="cls-68" points="160.53 47.52 165.76 40.23 154.24 40.23 160.53 47.52"/><polygon class="cls-69" points="165.76 40.23 166.76 26.88 154.24 40.23 165.76 40.23"/><polygon class="cls-70" points="165.76 40.23 179.72 24.05 166.76 26.88 165.76 40.23"/><polygon class="cls-71" points="179.72 24.05 180.13 12.64 166.76 26.88 179.72 24.05"/><polygon class="cls-67" points="179.72 24.05 193.44 11.61 180.13 12.64 179.72 24.05"/><polygon class="cls-66" points="193.44 11.61 186.14 3.72 180.13 12.64 193.44 11.61"/><polygon class="cls-71" points="193.44 11.61 192.65 0.89 186.14 3.72 193.44 11.61"/><polygon class="cls-65" points="193.44 11.61 205.94 12.7 192.65 0.89 193.44 11.61"/><polygon class="cls-66" points="205.94 12.7 200.75 17.45 193.44 11.61 205.94 12.7"/><polygon class="cls-70" points="205.94 12.7 209.49 27.03 200.75 17.45 205.94 12.7"/><polygon class="cls-67" points="200.75 50.14 190.9 52.48 179.72 40.23 200.75 50.14"/><polygon class="cls-71" points="190.72 53.03 191.02 72.64 181.79 80.54 190.72 53.03"/><polygon class="cls-72" points="190.9 52.48 179.72 40.23 167.48 66.63 190.9 52.48"/><polygon class="cls-73" points="179.72 40.23 165.76 40.23 167.48 66.63 179.72 40.23"/><polygon class="cls-74" points="165.76 40.23 160.53 47.52 167.48 66.63 165.76 40.23"/><polygon class="cls-75" points="200.75 50.14 213.89 44.52 202.46 69.25 200.75 50.14"/><polygon class="cls-72" points="213.89 44.52 209.49 27.03 200.75 50.14 213.89 44.52"/><polygon class="cls-76" points="200.75 50.14 191.02 72.64 202.46 69.25 200.75 50.14"/><polygon class="cls-77" points="200.75 50.14 191.02 72.64 190.9 52.48 200.75 50.14"/><polygon class="cls-78" points="202.46 69.25 194.25 89.61 191.02 72.64 202.46 69.25"/><polygon class="cls-79" points="191.02 72.64 181.79 80.54 194.25 89.61 191.02 72.64"/><polygon class="cls-80" points="194.25 89.61 217.14 75.16 199.04 77.74 194.25 89.61"/><polygon class="cls-81" points="217.28 74.83 202.46 69.25 199.04 77.74 217.28 74.83"/><polygon class="cls-82" points="202.46 69.25 215.81 61.38 213.89 44.52 202.46 69.25"/><polygon class="cls-83" points="215.7 61.45 213.13 73.23 202.46 69.25 215.7 61.45"/><polygon class="cls-84" points="193.44 11.61 179.72 40.23 179.72 24.05 193.44 11.61"/><polygon class="cls-85" points="179.72 24.05 165.76 40.23 179.72 40.23 179.72 24.05"/><polygon class="cls-86" points="193.44 11.61 200.75 17.45 179.72 40.23 193.44 11.61"/><polygon class="cls-87" points="200.75 17.45 209.49 27.03 179.72 40.23 200.75 17.45"/><polygon class="cls-88" points="164.06 116.01 176.33 119.02 151.4 126.13 164.06 116.01"/><polygon class="cls-89" points="176.33 119.02 169.26 129.16 153.65 125.48 176.33 119.02"/><polygon class="cls-90" points="209.49 27.03 200.75 50.14 179.72 40.23 209.49 27.03"/><polygon class="cls-91" points="169.26 129.16 177.62 133.73 162.04 138.9 169.26 129.16"/><polygon class="cls-69" points="146 134.59 142.35 146.95 154.31 141.09 146 134.59"/><polygon class="cls-67" points="146 134.59 140.23 134.72 142.28 146.58 146 134.59"/><polygon class="cls-84" points="176.33 119.02 153.88 113.51 167.61 95.24 176.33 119.02"/><polygon class="cls-84" points="141.47 100.72 194.25 89.61 181.79 80.54 141.47 100.72"/><polygon class="cls-76" points="153.88 113.51 149.18 127.9 164.06 116.01 153.88 113.51"/><polygon class="cls-92" points="153.88 113.51 140.4 112.92 146 134.59 149.18 127.9 153.88 113.51"/><polygon class="cls-93" points="140.98 100.88 140.4 112.92 153.88 113.51 140.98 100.88"/><polygon class="cls-75" points="140.98 100.88 131.72 113.51 140.4 112.92 140.98 100.88"/><polygon class="cls-94" points="140.4 112.92 132.18 134.9 146 134.59 140.4 112.92"/><polygon class="cls-88" points="140.4 112.92 131.72 113.51 132.39 134.34 140.4 112.92"/><polygon class="cls-86" points="131.42 113.68 118.83 120.71 132.18 134.9 131.42 113.68"/><polygon class="cls-33" points="132.18 134.9 118.83 152.78 118.83 120.71 132.18 134.9"/><polygon class="cls-95" points="132.18 134.9 131.06 163.36 118.83 152.78 132.18 134.9"/><polygon class="cls-35" points="131.06 163.36 118.83 189.31 118.83 152.78 131.06 163.36"/><polygon class="cls-96" points="131.06 163.36 138.91 196.78 118.83 189.31 131.06 163.36"/><polygon class="cls-82" points="142.35 146.95 132.39 134.89 140.23 134.72 142.35 146.95"/><polygon class="cls-97" points="140.98 100.88 118.83 94.93 131.63 113.63 140.98 100.88"/><polygon class="cls-98" points="131.72 113.51 118.83 94.93 118.83 120.71 131.72 113.51"/><polygon class="cls-99" points="140.98 100.88 119 58.74 118.83 94.93 140.98 100.88"/><polygon class="cls-100" points="140.98 100.88 141.18 57.21 127.45 74.62 140.98 100.88"/><polygon class="cls-101" points="141.18 57.21 167.48 66.63 140.98 100.88 141.18 57.21"/><polygon class="cls-101" points="141.18 57.21 128.07 56.54 127.47 74.08 141.18 57.21"/><polygon class="cls-102" points="141.18 57.21 135.75 43.62 128.07 56.54 141.18 57.21"/><polygon class="cls-103" points="128.07 56.54 118.83 57.87 127.45 74.62 128.07 56.54"/><polygon class="cls-104" points="128.07 56.54 123.43 42.55 118.83 57.87 128.07 56.54"/><polygon class="cls-105" points="135.75 43.62 147.99 46.98 141.18 57.21 135.75 43.62"/><polygon class="cls-85" points="167.48 66.63 181.79 80.54 141.56 100.39 167.48 66.63"/><polygon class="cls-106" points="153.88 113.51 141.18 101.08 167.61 95.24 153.88 113.51"/><polygon class="cls-90" points="177.62 133.73 185.66 154.56 216.86 161.03 177.62 133.73"/><polygon class="cls-106" points="177.62 133.73 169.96 147.46 181.79 144.53 177.62 133.73"/><polygon class="cls-107" points="169.96 147.46 170.46 162.66 162.65 164.96 169.96 147.46"/><polygon class="cls-79" points="169.96 147.46 181.79 144.53 170.46 162.66 169.96 147.46"/><polygon class="cls-79" points="185.66 154.56 188.02 170.59 216.86 161.03 185.66 154.56"/><polygon class="cls-108" points="185.66 154.56 178.67 180.07 188.02 170.59 185.66 154.56"/><polygon class="cls-108" points="185.66 154.56 181.79 144.53 170.46 162.66 185.66 154.56"/><polygon class="cls-109" points="138.91 196.78 138.1 205.27 126.35 192.09 138.91 196.78"/><polygon class="cls-110" points="157.63 211.49 152.59 229.12 137.26 217.36 157.63 211.49"/><polygon class="cls-91" points="139.16 196.52 156.81 191.8 157.63 211.49 139.16 196.52"/><polygon class="cls-111" points="156.81 191.8 131.06 163.36 138.91 196.78 156.81 191.8"/><polygon class="cls-74" points="157.63 211.49 163.12 204.83 156.81 191.8 157.63 211.49"/><polygon class="cls-12" points="126.35 192.09 118.83 196.78 131.06 197.18 126.35 192.09"/><polygon class="cls-47" points="126.35 192.09 118.83 189.31 118.83 196.78 126.35 192.09"/><polygon class="cls-112" points="163.12 204.83 164.43 210.93 157.63 211.49 163.12 204.83"/><polygon class="cls-85" points="164.43 210.93 152.59 229.12 157.63 211.49 164.43 210.93"/><polygon class="cls-78" points="137.26 217.36 128.17 229.54 136.11 227.5 137.26 217.36"/><polygon class="cls-75" points="160.9 149.85 154.24 141.13 162.04 138.9 160.9 149.85"/><polygon class="cls-82" points="137.26 217.36 136.11 227.5 152.59 229.12 137.26 217.36"/><polygon class="cls-105" points="133.32 234.09 141.5 237.15 118.83 235.62 118.83 231.97 133.32 234.09"/><polygon class="cls-65" points="141.5 237.15 129.37 241.91 118.96 241.29 118.82 235.79 141.5 237.15"/><polygon class="cls-80" points="136.11 227.5 141.5 237.15 133.32 234.09 136.11 227.5"/><polygon class="cls-78" points="136.11 227.5 152.59 229.12 141.5 237.15 136.11 227.5"/><polygon class="cls-110" points="177.62 133.73 162.04 138.9 169.96 147.46 177.62 133.73"/><polygon class="cls-91" points="162.04 138.9 160.9 149.85 169.96 147.46 162.04 138.9"/><polygon class="cls-113" points="160.9 149.85 162.65 164.96 169.96 147.46 160.9 149.85"/><polygon class="cls-114" points="160.9 149.85 157.41 168.18 162.65 164.96 160.9 149.85"/><polygon class="cls-78" points="160.9 149.85 151.03 157.73 157.41 168.18 160.9 149.85"/><path class="cls-49" d="M169.46,129.06s-14.54-8-20.28-1.16l-3.39,6.82s5,11.08,16.43,4.23C162.22,139,165.82,135.86,169.46,129.06Z"/><path class="cls-25" d="M155.78,129.7a4.88,4.88,0,0,0-4.66,3.43,4.76,4.76,0,0,1-.23-1.47,4.89,4.89,0,1,1,9.78,0,4.76,4.76,0,0,1-.22,1.47A4.89,4.89,0,0,0,155.78,129.7Z"/><path class="cls-44" d="M155.78,136.55a4.88,4.88,0,0,1-4.66-3.42,4.89,4.89,0,0,1,9.33,0A4.9,4.9,0,0,1,155.78,136.55Z"/><path class="cls-8" d="M153.51,130.75a1.4,1.4,0,1,0,1.4-1.4A1.4,1.4,0,0,0,153.51,130.75Z"/><polygon class="cls-94" points="160.9 149.85 151.03 157.73 154.24 141.13 160.9 149.85"/><polygon class="cls-89" points="154.24 141.13 142.35 146.95 151.03 157.73 154.24 141.13"/><polygon class="cls-115" points="142.35 146.95 132.18 134.9 131.06 163.36 142.35 146.95"/><polygon class="cls-73" points="142.35 146.95 151.03 157.73 131.43 163.18 142.35 146.95"/><polygon class="cls-76" points="151.03 157.73 157.41 168.18 131.84 163.36 151.03 157.73"/><polygon class="cls-77" points="157.41 168.18 156.81 191.8 131.54 163.65 157.41 168.18"/><polygon class="cls-82" points="178.67 180.07 157.41 168.18 156.81 191.8 178.67 180.07"/><polygon class="cls-73" points="170.46 162.66 178.67 180.07 185.66 154.56 170.46 162.66"/><polygon class="cls-75" points="170.46 162.66 165.43 172.66 178.67 180.07 170.46 162.66"/><polygon class="cls-75" points="188.02 170.59 205.41 189.31 178.67 180.07 188.02 170.59"/><polygon class="cls-110" points="188.02 170.59 204.94 172.46 205.41 189.31 188.02 170.59"/><polygon class="cls-93" points="204.94 172.46 202.41 165.82 188.02 170.59 204.94 172.46"/><polygon class="cls-93" points="162.65 164.96 165.43 172.66 170.46 162.66 162.65 164.96"/><polygon class="cls-74" points="162.65 164.96 157.41 168.18 165.43 172.66 162.65 164.96"/><polygon class="cls-116" points="163.12 204.83 178.67 180.07 156.81 191.8 163.12 204.83"/><polygon class="cls-82" points="178.67 180.07 184.95 200.62 205.41 189.31 178.67 180.07"/><polygon class="cls-73" points="178.67 180.07 163.12 204.83 184.95 200.62 178.67 180.07"/><polygon class="cls-73" points="164.43 210.93 186.54 217.76 184.95 200.62 164.43 210.93"/><polygon class="cls-50" points="128.17 229.55 118.83 220.83 118.83 231.97 128.17 229.55"/><polygon class="cls-7" points="123.02 224.75 129.61 218.65 129.24 212.79 123.5 212.79 123.02 224.75"/><polygon class="cls-117" points="137.26 217.36 129.61 218.65 138.22 205.41 137.26 217.36"/><polygon class="cls-118" points="129.4 212.56 131.01 197.58 137.96 205.34 129.4 212.56"/><polygon class="cls-119" points="131.06 197.18 118.83 207.47 118.83 196.78 131.06 197.18"/><polygon class="cls-4" points="118.83 207.47 123.5 212.79 123.02 224.75 118.83 220.83 118.83 207.47"/><polygon class="cls-120" points="123.33 212.79 130.89 197.18 118.65 207.47 123.33 212.79"/><polygon class="cls-67" points="129.24 212.79 130.63 198.14 123.5 212.79 129.24 212.79"/><polygon class="cls-65" points="129.39 212.7 129.39 218.52 137.53 205.97 129.39 212.7"/><polygon class="cls-121" points="137.26 217.36 128.17 229.55 123.02 224.75 129.61 218.65 137.26 217.36"/><polygon class="cls-85" points="184.95 200.62 205.41 189.31 208.6 214.27 184.95 200.62"/><polygon class="cls-90" points="205.41 189.31 216.56 197.23 208.6 214.27 205.41 189.31"/><polygon class="cls-86" points="216.56 197.23 221.32 178.09 205.41 189.31 216.56 197.23"/><polygon class="cls-122" points="221.32 178.09 204.94 172.46 205.41 189.31 221.32 178.09"/><polygon class="cls-123" points="221.32 178.09 216.86 161.03 204.94 172.46 221.32 178.09"/><polygon class="cls-124" points="216.86 161.03 204.94 172.46 202.41 165.82 216.86 161.03"/><polygon class="cls-125" points="221.32 178.09 231.26 226.32 216.56 197.23 221.32 178.09"/><polygon class="cls-124" points="216.56 197.23 208.6 214.27 231.26 226.32 216.56 197.23"/><polygon class="cls-108" points="221.32 178.09 237.65 180.43 216.86 161.03 221.32 178.09"/><polygon class="cls-85" points="177.62 133.73 217.21 147.17 216.86 161.03 177.62 133.73"/><polygon class="cls-126" points="217.21 147.17 216.33 131.59 177.62 133.73 217.21 147.17"/><polygon class="cls-64" points="217.21 147.17 235.91 156.56 216.86 161.03 217.21 147.17"/><polygon class="cls-127" points="217.21 147.17 233.89 146.87 216.33 131.59 217.21 147.17"/><polygon class="cls-122" points="216.33 131.59 213.63 121.03 177.62 133.73 216.33 131.59"/><polygon class="cls-86" points="194.25 89.61 176.33 119.02 167.61 95.24 194.25 89.61"/><polygon class="cls-84" points="194.25 89.61 202.78 100.48 187.62 100.48 194.25 89.61"/><polygon class="cls-90" points="202.78 100.48 206.1 111.55 188.25 100.62 202.78 100.48"/><polygon class="cls-128" points="206.1 111.55 177.62 133.73 213.63 121.03 206.1 111.55"/><polygon class="cls-86" points="206.1 111.55 176.33 119.02 177.62 133.73 206.1 111.55"/><polygon class="cls-128" points="206.1 111.55 187.62 100.48 176.33 119.02 206.1 111.55"/><polygon class="cls-99" points="206.1 111.55 223.42 102.46 202.78 100.48 206.1 111.55"/><polygon class="cls-87" points="206.1 111.55 226.79 112.72 213.63 121.03 206.1 111.55"/><polygon class="cls-84" points="213.63 121.03 229.94 135.51 216.33 131.59 213.63 121.03"/><polygon class="cls-129" points="194.25 89.61 202.78 100.48 219 89.03 194.25 89.61"/><polygon class="cls-130" points="219.16 88.68 210.78 79.27 194.25 89.61 219.16 88.68"/><polygon class="cls-78" points="208.6 214.27 188.85 239.66 186.54 217.76 208.6 214.27"/><polygon class="cls-116" points="184.95 200.62 186.54 217.76 208.6 214.27 184.95 200.62"/><polygon class="cls-94" points="188.85 239.66 164.43 210.93 186.54 217.76 188.85 239.66"/><polygon class="cls-72" points="164.43 210.93 176.42 235.04 188.85 239.66 164.43 210.93"/><polygon class="cls-82" points="164.43 210.93 152.59 229.12 176.42 235.04 164.43 210.93"/><polygon class="cls-82" points="188.85 239.66 178.68 248.59 176.42 235.04 188.85 239.66"/><polygon class="cls-123" points="188.85 239.66 223.7 236.13 199.88 225.47 188.85 239.66"/><polygon class="cls-131" points="208.6 214.27 223.7 236.13 199.88 225.47 208.6 214.27"/><polygon class="cls-86" points="188.85 239.66 212.22 254.39 208.6 237.66 188.85 239.66"/><polygon class="cls-106" points="188.85 239.66 178.68 248.59 211.89 254.18 188.85 239.66"/><polygon class="cls-77" points="178.68 248.59 152.59 229.12 176.42 235.04 178.68 248.59"/><polygon class="cls-79" points="178.68 248.59 207.79 270.19 201.18 252.48 178.68 248.59"/><polygon class="cls-64" points="178.68 248.59 187.15 269.84 208.09 270.37 178.68 248.59"/><polygon class="cls-83" points="178.68 248.59 163.14 261.96 156.37 243.42 178.68 248.59"/><polygon class="cls-78" points="152.59 229.12 156.37 243.42 178.68 248.59 152.59 229.12"/><polygon class="cls-75" points="141.5 237.15 130.64 247.03 129.53 242 141.5 237.15"/><polygon class="cls-30" points="129.37 241.91 118.83 241.49 130.64 247.03 129.37 241.91"/><polygon class="cls-29" points="130.64 247.03 118.83 248.07 118.81 241.49 130.64 247.03"/><polygon class="cls-44" points="130.64 247.03 118.83 255.6 118.83 248.07 130.64 247.03"/><polygon class="cls-116" points="146.82 254.17 163.14 261.96 154.98 271.23 146.82 254.17"/><polygon class="cls-74" points="146.82 254.17 142.65 277.98 154.98 271.23 146.82 254.17"/><polygon class="cls-89" points="142.65 277.98 120.16 288.73 144.49 267.42 142.65 277.98"/><polygon class="cls-113" points="142.65 277.98 131.55 311.27 118.99 289.67 142.65 277.98"/><polygon class="cls-82" points="142.65 277.98 157.63 299.8 154.98 271.23 142.65 277.98"/><polygon class="cls-75" points="142.65 277.98 151.11 290.3 131.55 311.27 142.65 277.98"/><polygon class="cls-132" points="118.83 289.75 126.2 302.23 118.83 309.76 118.83 289.75"/><polygon class="cls-110" points="125.65 302.98 119.01 319.03 118.83 309.76 125.65 302.98"/><polygon class="cls-133" points="144.49 267.42 131.06 261.54 118.99 289.36 144.49 267.42"/><polygon class="cls-20" points="131.06 261.54 118.83 255.6 118.83 289.75 131.06 261.54"/><polygon class="cls-43" points="130.64 247.03 131.06 261.54 118.83 255.6 130.64 247.03"/><polygon class="cls-134" points="130.64 247.03 144.49 267.42 131.06 261.54 130.64 247.03"/><polygon class="cls-80" points="141.5 237.15 146.95 254.15 130.96 246.99 141.5 237.15"/><polygon class="cls-108" points="131.06 247.43 144.49 267.42 146.82 254.17 131.06 247.43"/><polygon class="cls-135" points="152.59 229.12 141.5 237.15 156.37 243.42 152.59 229.12"/><polygon class="cls-107" points="163.14 261.96 176.64 287.67 187.15 269.84 163.14 261.96"/><polygon class="cls-78" points="163.14 261.96 157.63 299.8 154.98 271.23 163.14 261.96"/><polygon class="cls-79" points="163.14 261.96 171.87 278.59 157.63 299.8 163.14 261.96"/><polygon class="cls-136" points="178.68 248.59 163.14 261.96 187.15 269.84 178.68 248.59"/><polygon class="cls-77" points="156.37 243.42 146.82 254.17 163.14 261.96 156.37 243.42"/><polygon class="cls-78" points="156.37 243.42 141.5 237.15 146.82 254.17 156.37 243.42"/><polygon class="cls-78" points="163.12 204.83 164.43 210.93 184.95 200.62 163.12 204.83"/><polygon class="cls-137" points="138.91 196.78 157.63 211.49 137.26 217.36 138.91 196.78"/><polygon class="cls-138" points="118.83 231.97 136.11 227.5 133.32 234.09 118.83 231.97"/><path class="cls-139" d="M221.29,177a1.06,1.06,0,0,0,0,2.12A1.06,1.06,0,0,0,221.29,177Z"/><path class="cls-139" d="M204.9,171.34a1.07,1.07,0,0,0,0,2.13A1.07,1.07,0,0,0,204.9,171.34Z"/><path class="cls-139" d="M217.07,159.8a1.07,1.07,0,0,0,0,2.13A1.07,1.07,0,0,0,217.07,159.8Z"/><path class="cls-139" d="M217.31,145.92a1.07,1.07,0,0,0,0,2.13A1.07,1.07,0,0,0,217.31,145.92Z"/><path class="cls-139" d="M213.59,119.76a1.06,1.06,0,0,0,0,2.12A1.06,1.06,0,0,0,213.59,119.76Z"/><path class="cls-139" d="M216.32,130.49a1.08,1.08,0,0,0-1.07,1.06v0a1.07,1.07,0,0,0,2.13,0v0A1.07,1.07,0,0,0,216.32,130.49Z"/><path class="cls-139" d="M206.31,110.31a1.07,1.07,0,0,0,0,2.13A1.07,1.07,0,0,0,206.31,110.31Z"/><path class="cls-139" d="M202.75,99.37h0a1.07,1.07,0,0,0-1.06,1.07,1.08,1.08,0,0,0,1.06,1.06h0a1.07,1.07,0,0,0,0-2.13Z"/><path class="cls-139" d="M194.11,88.49a1.07,1.07,0,0,0,0,2.13A1.07,1.07,0,0,0,194.11,88.49Z"/><path class="cls-139" d="M191,71.68a1.07,1.07,0,0,0,0,2.13A1.07,1.07,0,0,0,191,71.68Z"/><path class="cls-139" d="M202.83,68.15a1.06,1.06,0,0,0,0,2.12A1.06,1.06,0,0,0,202.83,68.15Z"/><path class="cls-139" d="M181.7,79.81a1.07,1.07,0,0,0,0,2.13A1.07,1.07,0,0,0,181.7,79.81Z"/><path class="cls-139" d="M167.6,65.79a1.07,1.07,0,0,0,0,2.13A1.07,1.07,0,0,0,167.6,65.79Z"/><path class="cls-139" d="M191,50.94a1.07,1.07,0,0,0,0,2.13A1.07,1.07,0,0,0,191,50.94Z"/><path class="cls-139" d="M200.63,49.29a1.07,1.07,0,0,0,0,2.13A1.07,1.07,0,0,0,200.63,49.29Z"/><path class="cls-139" d="M213.65,43.46a1.07,1.07,0,0,0,0,2.13A1.07,1.07,0,0,0,213.65,43.46Z"/><path class="cls-139" d="M209.23,25.81a1.07,1.07,0,0,0,0,2.13A1.07,1.07,0,0,0,209.23,25.81Z"/><path class="cls-139" d="M206.05,11.78a1.07,1.07,0,0,0,0,2.13A1.07,1.07,0,0,0,206.05,11.78Z"/><path class="cls-139" d="M200.75,16.46a1.06,1.06,0,0,0,0,2.12A1.06,1.06,0,0,0,200.75,16.46Z"/><path class="cls-139" d="M193.48,10.72a1.07,1.07,0,0,0,0,2.13A1.07,1.07,0,0,0,193.48,10.72Z"/><path class="cls-139" d="M192.89,0a1.07,1.07,0,0,0,0,2.13A1.07,1.07,0,0,0,192.89,0Z"/><path class="cls-139" d="M187,3.1a1.08,1.08,0,0,0-1.51,0l0,0a1.06,1.06,0,0,0,1.51,1.5l0,0A1.09,1.09,0,0,0,187,3.1Z"/><path class="cls-139" d="M179.89,11.51a1.07,1.07,0,0,0,0,2.13A1.07,1.07,0,0,0,179.89,11.51Z"/><path class="cls-139" d="M179.73,22.78a1.07,1.07,0,0,0,0,2.13A1.07,1.07,0,0,0,179.73,22.78Z"/><path class="cls-139" d="M166.5,25.92h0a1.07,1.07,0,1,0,0,2.13h0A1.07,1.07,0,0,0,167.56,27,1.09,1.09,0,0,0,166.5,25.92Z"/><path class="cls-139" d="M165.83,39a1.07,1.07,0,0,0,0,2.13A1.07,1.07,0,0,0,165.83,39Z"/><path class="cls-139" d="M179.87,39a1.07,1.07,0,0,0,0,2.13A1.07,1.07,0,0,0,179.87,39Z"/><path class="cls-139" d="M160.69,46.35h0a1.06,1.06,0,1,0,0,2.12h0a1.06,1.06,0,1,0,0-2.12Z"/><path class="cls-139" d="M154.52,39a1.07,1.07,0,0,0,0,2.13A1.07,1.07,0,0,0,154.52,39Z"/><path class="cls-139" d="M148.39,45.84a1.07,1.07,0,0,0-1.06,1.06v0a1.06,1.06,0,1,0,2.12,0v0A1.06,1.06,0,0,0,148.39,45.84Z"/><path class="cls-139" d="M141.32,56.09a1.07,1.07,0,0,0-1.06,1.06v0a1.06,1.06,0,0,0,2.12,0v0A1.06,1.06,0,0,0,141.32,56.09Z"/><path class="cls-139" d="M141,99.92a1.07,1.07,0,0,0,0,2.13A1.07,1.07,0,0,0,141,99.92Z"/><path class="cls-139" d="M140.45,112.06a1.07,1.07,0,0,0,0,2.13A1.07,1.07,0,0,0,140.45,112.06Z"/><path class="cls-139" d="M153.65,112.57a1.07,1.07,0,0,0,0,2.13A1.07,1.07,0,0,0,153.65,112.57Z"/><path class="cls-139" d="M164.14,115.16a1.07,1.07,0,0,0,0,2.13A1.07,1.07,0,0,0,164.14,115.16Z"/><path class="cls-139" d="M176.28,117.87a1.09,1.09,0,0,0-1.07,1.07v0a1.08,1.08,0,0,0,1.07,1.06,1.09,1.09,0,0,0,1.06-1.06v0A1.08,1.08,0,0,0,176.28,117.87Z"/><path class="cls-139" d="M177.53,132.64a1.07,1.07,0,0,0,0,2.13A1.07,1.07,0,0,0,177.53,132.64Z"/><path class="cls-139" d="M181.62,143.48a1.08,1.08,0,0,0-1.06,1.07v0a1.07,1.07,0,0,0,1.06,1.06,1.09,1.09,0,0,0,1.06-1.06v0A1.08,1.08,0,0,0,181.62,143.48Z"/><path class="cls-139" d="M170.19,146.31a1.07,1.07,0,0,0,0,2.13A1.07,1.07,0,0,0,170.19,146.31Z"/><path class="cls-139" d="M160.88,148.59a1.07,1.07,0,0,0,0,2.13A1.07,1.07,0,0,0,160.88,148.59Z"/><path class="cls-139" d="M154.12,140.11a1.06,1.06,0,0,0,0,2.12A1.06,1.06,0,0,0,154.12,140.11Z"/><path class="cls-139" d="M151.14,156.6a1.07,1.07,0,0,0,0,2.13A1.07,1.07,0,0,0,151.14,156.6Z"/><path class="cls-139" d="M162.69,163.75a1.07,1.07,0,0,0,0,2.13A1.07,1.07,0,0,0,162.69,163.75Z"/><path class="cls-139" d="M157.5,167a1.07,1.07,0,0,0,0,2.13A1.07,1.07,0,0,0,157.5,167Z"/><path class="cls-139" d="M165.51,171.57a1.06,1.06,0,0,0,0,2.12A1.06,1.06,0,0,0,165.51,171.57Z"/><path class="cls-139" d="M170.58,161.51a1.09,1.09,0,0,0-1.06,1.07v0a1.06,1.06,0,1,0,2.12,0v0A1.08,1.08,0,0,0,170.58,161.51Z"/><path class="cls-139" d="M178.52,178.87h0a1.07,1.07,0,1,0,0,2.13h0a1.07,1.07,0,0,0,0-2.13Z"/><path class="cls-139" d="M188.06,169.68a1.07,1.07,0,0,0,0,2.13A1.07,1.07,0,0,0,188.06,169.68Z"/><path class="cls-139" d="M185.63,153.38a1.07,1.07,0,0,0,0,2.13A1.07,1.07,0,0,0,185.63,153.38Z"/><path class="cls-139" d="M205.34,188.26a1.07,1.07,0,0,0,0,2.13A1.07,1.07,0,0,0,205.34,188.26Z"/><path class="cls-139" d="M216.42,196.08a1.06,1.06,0,0,0,0,2.12A1.06,1.06,0,0,0,216.42,196.08Z"/><path class="cls-139" d="M208.49,213a1.08,1.08,0,0,0-1.07,1.06v0a1.07,1.07,0,0,0,2.13,0v0A1.07,1.07,0,0,0,208.49,213Z"/><path class="cls-139" d="M185,199.42a1.08,1.08,0,0,0-1.07,1.06v0a1.07,1.07,0,0,0,2.13,0v0A1.07,1.07,0,0,0,185,199.42Z"/><path class="cls-139" d="M164.38,209.47h0a1.07,1.07,0,1,0,0,2.13h0a1.07,1.07,0,0,0,0-2.13Z"/><path class="cls-139" d="M163.12,203.42a1.07,1.07,0,0,0,0,2.13A1.07,1.07,0,0,0,163.12,203.42Z"/><path class="cls-139" d="M157.62,210.22a1.07,1.07,0,0,0-1.06,1.06v0a1.06,1.06,0,0,0,2.12,0v0A1.07,1.07,0,0,0,157.62,210.22Z"/><path class="cls-139" d="M139.16,195.7a1.09,1.09,0,0,0-1.06,1.07v0a1.07,1.07,0,0,0,2.13,0v0A1.08,1.08,0,0,0,139.16,195.7Z"/><path class="cls-139" d="M152.36,228.21a1.06,1.06,0,0,0,0,2.12A1.06,1.06,0,0,0,152.36,228.21Z"/><path class="cls-139" d="M141.55,236.14a1.07,1.07,0,0,0,0,2.13A1.07,1.07,0,0,0,141.55,236.14Z"/><path class="cls-139" d="M147,253a1.07,1.07,0,0,0,0,2.13A1.07,1.07,0,0,0,147,253Z"/><path class="cls-139" d="M154.83,270.47h0a1.07,1.07,0,0,0,0,2.13h0a1.07,1.07,0,0,0,0-2.13Z"/><path class="cls-139" d="M163,261.08a1.07,1.07,0,0,0,0,2.13A1.07,1.07,0,0,0,163,261.08Z"/><path class="cls-139" d="M142.69,276.91a1.07,1.07,0,0,0,0,2.13A1.07,1.07,0,0,0,142.69,276.91Z"/><path class="cls-139" d="M157.78,299.19a1.07,1.07,0,0,0,0,2.13A1.07,1.07,0,0,0,157.78,299.19Z"/><path class="cls-139" d="M186.88,268.74a1.07,1.07,0,0,0,0,2.13A1.07,1.07,0,0,0,186.88,268.74Z"/><path class="cls-139" d="M207.94,269.18a1.06,1.06,0,0,0,0,2.12A1.06,1.06,0,0,0,207.94,269.18Z"/><path class="cls-139" d="M212,253.19a1.07,1.07,0,0,0,0,2.13A1.07,1.07,0,0,0,212,253.19Z"/><path class="cls-139" d="M223.7,235.06a1.07,1.07,0,0,0,0,2.13A1.07,1.07,0,0,0,223.7,235.06Z"/><path class="cls-139" d="M231.5,225.46a1.06,1.06,0,0,0,0,2.12A1.06,1.06,0,0,0,231.5,225.46Z"/><path class="cls-139" d="M176.45,233.86a1.09,1.09,0,0,0-1.06,1.07V235a1.07,1.07,0,0,0,2.13,0v-.06A1.08,1.08,0,0,0,176.45,233.86Z"/><path class="cls-139" d="M156.35,242.48a1.08,1.08,0,0,0-1.06,1.06v.07a1.07,1.07,0,0,0,2.13,0v-.07A1.08,1.08,0,0,0,156.35,242.48Z"/><path class="cls-139" d="M188.83,239a1.07,1.07,0,0,0,0,2.13A1.07,1.07,0,0,0,188.83,239Z"/><path class="cls-139" d="M186.92,216.64a1.06,1.06,0,0,0,0,2.12A1.06,1.06,0,0,0,186.92,216.64Z"/><path class="cls-139" d="M128.52,55.34a1.07,1.07,0,0,0,0,2.13A1.07,1.07,0,0,0,128.52,55.34Z"/><path class="cls-139" d="M136.18,42.61a1.07,1.07,0,0,0,0,2.13A1.07,1.07,0,0,0,136.18,42.61Z"/><path class="cls-139" d="M136.21,226.44a1.09,1.09,0,0,0-1.06,1.06v.08a1.07,1.07,0,1,0,2.13,0v-.08A1.08,1.08,0,0,0,136.21,226.44Z"/><path class="cls-139" d="M131.74,310a1.07,1.07,0,0,0,0,2.13A1.07,1.07,0,0,0,131.74,310Z"/></g></g></svg>